<?xml version="1.0" encoding="UTF-8"?>
<svg xmlns="http://www.w3.org/2000/svg" width="164" height="132" version="1.1">
	<path d="m 145,47.3 8.4,47.2 c 0.8,4.5 -2.4,8 -12.3,10.5 l -41.1,10.2 c -3.5,3.9 -4.6,14.4 -1.6,15.1 0,0 33.4,-3.1 50.8,-4.6 4.1,-0.4 10.4,-6.3 10.6,-10.6 L 162,58 z m -29.4,56.7 -11.8,-59.1 4.4,-1 12.7,57.4 c 0.8,3.5 28.3,-1.9 27.6,-5.7 L 135.4,21.6 c -0.7,-3.9 -8.9,-18.7 -11.8,-18.3 l -15.5,2.4 c -3.8,0.6 -4.8,4.9 -10.1,5.9 C 93.3,12.5 87.1,1.4 82.9,2.3 L 67.4,5.8 c -4.3,1 -4.5,10.6 -9.2,11.9 -4.8,1.4 -7.9,-2.6 -11.3,-1.6 l -12.1,3.5 c -4.9,1.4 -5,12.7 -9.7,14.7 -4.3,1.8 -8,-1.3 -11.2,0.8 L 4,41.6 C 1.7,43 2.9,59.1 4.1,62.2 l 18.5,51.6 c 1,2.8 21.6,-2.1 20.9,-4.8 l -12.9,-48 4.4,-1 15.5,57 c 0.8,3.1 27.3,-2.5 26.6,-5.6 C 72.8,92.1 64.3,53.6 64.3,53.6 l 4.4,-1 13.7,58.7 c 0.8,3.2 34,-3.6 33.2,-7.3 z"/>
</svg>
